# xmcd CD database file
#
# Track frame offsets:
#	150
#	17261
#	43754
#	73050
#	93400
#	109121
#	129281
#	144006
#	163813
#	181504
#	207135
#
# Disc length: 3014 seconds
#
# Revision: 0
# Processed by: cddbd v1.5.2PL0 Copyright (c) Steve Scherf et al.
# Submitted via: CDex 1.70beta2
#
DISCID=850bc40b
DTITLE=La 33 - Ten Cuidado
DYEAR=2010
DGENRE=Salsa
TTITLE0=Ten Cuidado
TTITLE1=Conciencia Intranquila
TTITLE2=Me Quedo
TTITLE3=Funky Boogaloo
TTITLE4=Sombra y Desgracia
TTITLE5=Salsa Resucito
TTITLE6=Cartagena
TTITLE7=Sonrisas Bellas
TTITLE8=Roxanne
TTITLE9=Vanidad
TTITLE10=Mambo Con Boogaloo
EXTD=YEAR: 2010
EXTT0=
EXTT1=
EXTT2=
EXTT3=
EXTT4=
EXTT5=
EXTT6=
EXTT7=
EXTT8=
EXTT9=
EXTT10=
PLAYORDER=
